# xmcd
#
# Track frame offsets:
#	150
#	21337
#	36075
#	55600
#	79187
#	93737
#	106450
#	128595
#	150775
#	171570
#	193337
#	208537
#	239662
#	263625
#	286032
#	302000
#	318637
#
# Disc length: 4620 seconds
#
# Revision: 1
# Processed by: cddbd v1.5.1PL0 Copyright (c) Steve Scherf et al.
# Submitted via: CDex 1.50Beta5
#
DISCID=e9120a11
DTITLE=Various Artist - POWER HITS JAPAN
DYEAR=1900
DGENRE=J-POP
TTITLE0=大滝詠一/君は天然色
TTITLE1=佐野元治.杉 真理.大滝詠一/A面で恋をして/ナイアガラトライアングル
TTITLE2=尾崎 豊/I LOVE YOU
TTITLE3=浜田省吾/悲しみは雪のように
TTITLE4=南 佳孝/スローなブギにしてくれ
TTITLE5=杉 真理/バカンスはいつも雨
TTITLE6=鈴木雅之/もう涙はいらない
TTITLE7=大沢誉志幸/そして僕は途方に暮れる
TTITLE8=小野正利/You're the Only
TTITLE9=久保田利伸/You were mine
TTITLE10=大江千里/YOU
TTITLE11=バブルバム・ブラザーズ/WONT BE LONG
TTITLE12=楠瀬誠志郎/僕がどんなに君を好きか、君は知らない
TTITLE13=奥田民生/愛のために
TTITLE14=井上陽水.奥田民生/ありがとう
TTITLE15=玉置浩二/田園
TTITLE16=スチャダラバ-featuring小沢健二/今夜はブギー・バック
EXTD=
EXTT0=
EXTT1=
EXTT2=
EXTT3=
EXTT4=
EXTT5=
EXTT6=
EXTT7=
EXTT8=
EXTT9=
EXTT10=
EXTT11=
EXTT12=
EXTT13=
EXTT14=
EXTT15=
EXTT16=
PLAYORDER=
